<mxfile host="app.diagrams.net" modified="2021-12-07T16:39:08.281Z" agent="5.0 (Windows NT 10.0; Win64; x64) AppleWebKit/537.36 (KHTML, like Gecko) Chrome/96.0.4664.45 Safari/537.36" etag="QJZWlNmZY3wNN8UWvX2G" version="15.9.1" type="github">
  <diagram id="Vd0_NYySnmPRhdGq6wNW" name="Page-1">
    <mxGraphModel dx="1673" dy="946" grid="1" gridSize="10" guides="1" tooltips="1" connect="1" arrows="1" fold="1" page="1" pageScale="1" pageWidth="827" pageHeight="1169" math="0" shadow="0">
      <root>
        <mxCell id="0" />
        <mxCell id="1" parent="0" />
        <mxCell id="Y50h0ioskMYezZolgOeM-1" value="XML" style="whiteSpace=wrap;html=1;aspect=fixed;" vertex="1" parent="1">
          <mxGeometry x="200" y="10" width="80" height="80" as="geometry" />
        </mxCell>
        <mxCell id="Y50h0ioskMYezZolgOeM-4" value="EXCEL" style="whiteSpace=wrap;html=1;aspect=fixed;" vertex="1" parent="1">
          <mxGeometry x="570" y="10" width="80" height="80" as="geometry" />
        </mxCell>
        <mxCell id="Y50h0ioskMYezZolgOeM-8" value="EXCEL" style="swimlane;fontStyle=0;childLayout=stackLayout;horizontal=1;startSize=30;horizontalStack=0;resizeParent=1;resizeParentMax=0;resizeLast=0;collapsible=1;marginBottom=0;" vertex="1" parent="1">
          <mxGeometry x="546" y="173" width="140" height="120" as="geometry" />
        </mxCell>
        <mxCell id="Y50h0ioskMYezZolgOeM-9" value="ЖК" style="text;strokeColor=none;fillColor=none;align=left;verticalAlign=middle;spacingLeft=4;spacingRight=4;overflow=hidden;points=[[0,0.5],[1,0.5]];portConstraint=eastwest;rotatable=0;" vertex="1" parent="Y50h0ioskMYezZolgOeM-8">
          <mxGeometry y="30" width="140" height="30" as="geometry" />
        </mxCell>
        <mxCell id="Y50h0ioskMYezZolgOeM-10" value="Квартира" style="text;strokeColor=none;fillColor=none;align=left;verticalAlign=middle;spacingLeft=4;spacingRight=4;overflow=hidden;points=[[0,0.5],[1,0.5]];portConstraint=eastwest;rotatable=0;" vertex="1" parent="Y50h0ioskMYezZolgOeM-8">
          <mxGeometry y="60" width="140" height="30" as="geometry" />
        </mxCell>
        <mxCell id="Y50h0ioskMYezZolgOeM-11" value="Item 3" style="text;strokeColor=none;fillColor=none;align=left;verticalAlign=middle;spacingLeft=4;spacingRight=4;overflow=hidden;points=[[0,0.5],[1,0.5]];portConstraint=eastwest;rotatable=0;" vertex="1" parent="Y50h0ioskMYezZolgOeM-8">
          <mxGeometry y="90" width="140" height="30" as="geometry" />
        </mxCell>
        <mxCell id="Y50h0ioskMYezZolgOeM-12" value="XML" style="swimlane;fontStyle=0;childLayout=stackLayout;horizontal=1;startSize=30;horizontalStack=0;resizeParent=1;resizeParentMax=0;resizeLast=0;collapsible=1;marginBottom=0;" vertex="1" parent="1">
          <mxGeometry x="270" y="170" width="140" height="120" as="geometry" />
        </mxCell>
        <mxCell id="Y50h0ioskMYezZolgOeM-13" value="Item 1" style="text;strokeColor=none;fillColor=none;align=left;verticalAlign=middle;spacingLeft=4;spacingRight=4;overflow=hidden;points=[[0,0.5],[1,0.5]];portConstraint=eastwest;rotatable=0;" vertex="1" parent="Y50h0ioskMYezZolgOeM-12">
          <mxGeometry y="30" width="140" height="30" as="geometry" />
        </mxCell>
        <mxCell id="Y50h0ioskMYezZolgOeM-14" value="Item 2" style="text;strokeColor=none;fillColor=none;align=left;verticalAlign=middle;spacingLeft=4;spacingRight=4;overflow=hidden;points=[[0,0.5],[1,0.5]];portConstraint=eastwest;rotatable=0;" vertex="1" parent="Y50h0ioskMYezZolgOeM-12">
          <mxGeometry y="60" width="140" height="30" as="geometry" />
        </mxCell>
        <mxCell id="Y50h0ioskMYezZolgOeM-15" value="Item 3" style="text;strokeColor=none;fillColor=none;align=left;verticalAlign=middle;spacingLeft=4;spacingRight=4;overflow=hidden;points=[[0,0.5],[1,0.5]];portConstraint=eastwest;rotatable=0;" vertex="1" parent="Y50h0ioskMYezZolgOeM-12">
          <mxGeometry y="90" width="140" height="30" as="geometry" />
        </mxCell>
        <mxCell id="Y50h0ioskMYezZolgOeM-16" value="Жилой комплекс" style="swimlane;fontStyle=0;childLayout=stackLayout;horizontal=1;startSize=30;horizontalStack=0;resizeParent=1;resizeParentMax=0;resizeLast=0;collapsible=1;marginBottom=0;" vertex="1" parent="1">
          <mxGeometry x="686" y="210" width="140" height="120" as="geometry" />
        </mxCell>
        <mxCell id="Y50h0ioskMYezZolgOeM-17" value="Квартиаа" style="text;strokeColor=none;fillColor=none;align=left;verticalAlign=middle;spacingLeft=4;spacingRight=4;overflow=hidden;points=[[0,0.5],[1,0.5]];portConstraint=eastwest;rotatable=0;" vertex="1" parent="Y50h0ioskMYezZolgOeM-16">
          <mxGeometry y="30" width="140" height="30" as="geometry" />
        </mxCell>
        <mxCell id="Y50h0ioskMYezZolgOeM-18" value="Квартира" style="text;strokeColor=none;fillColor=none;align=left;verticalAlign=middle;spacingLeft=4;spacingRight=4;overflow=hidden;points=[[0,0.5],[1,0.5]];portConstraint=eastwest;rotatable=0;" vertex="1" parent="Y50h0ioskMYezZolgOeM-16">
          <mxGeometry y="60" width="140" height="30" as="geometry" />
        </mxCell>
        <mxCell id="Y50h0ioskMYezZolgOeM-19" value="Item 3" style="text;strokeColor=none;fillColor=none;align=left;verticalAlign=middle;spacingLeft=4;spacingRight=4;overflow=hidden;points=[[0,0.5],[1,0.5]];portConstraint=eastwest;rotatable=0;" vertex="1" parent="Y50h0ioskMYezZolgOeM-16">
          <mxGeometry y="90" width="140" height="30" as="geometry" />
        </mxCell>
        <mxCell id="Y50h0ioskMYezZolgOeM-24" value="Жилой Комплекс" style="shape=ext;margin=3;double=1;whiteSpace=wrap;html=1;align=center;" vertex="1" parent="1">
          <mxGeometry x="170" y="350" width="100" height="40" as="geometry" />
        </mxCell>
        <mxCell id="Y50h0ioskMYezZolgOeM-26" value="Дом" style="shape=ext;margin=3;double=1;whiteSpace=wrap;html=1;align=center;" vertex="1" parent="1">
          <mxGeometry x="170" y="440" width="100" height="40" as="geometry" />
        </mxCell>
        <mxCell id="Y50h0ioskMYezZolgOeM-27" value="Дом" style="shape=ext;margin=3;double=1;whiteSpace=wrap;html=1;align=center;" vertex="1" parent="1">
          <mxGeometry x="300" y="440" width="100" height="40" as="geometry" />
        </mxCell>
        <mxCell id="Y50h0ioskMYezZolgOeM-39" style="edgeStyle=orthogonalEdgeStyle;rounded=0;orthogonalLoop=1;jettySize=auto;html=1;exitX=0.5;exitY=1;exitDx=0;exitDy=0;" edge="1" parent="1">
          <mxGeometry relative="1" as="geometry">
            <mxPoint x="100" y="500" as="sourcePoint" />
            <mxPoint x="100" y="500" as="targetPoint" />
          </mxGeometry>
        </mxCell>
        <mxCell id="Y50h0ioskMYezZolgOeM-40" value="Дом" style="shape=ext;margin=3;double=1;whiteSpace=wrap;html=1;align=center;" vertex="1" parent="1">
          <mxGeometry x="40" y="440" width="100" height="40" as="geometry" />
        </mxCell>
        <mxCell id="Y50h0ioskMYezZolgOeM-41" value="Секция" style="shape=ext;margin=3;double=1;whiteSpace=wrap;html=1;align=center;" vertex="1" parent="1">
          <mxGeometry x="300" y="540" width="100" height="40" as="geometry" />
        </mxCell>
        <mxCell id="Y50h0ioskMYezZolgOeM-46" value="Секция" style="shape=ext;margin=3;double=1;whiteSpace=wrap;html=1;align=center;" vertex="1" parent="1">
          <mxGeometry x="170" y="540" width="100" height="40" as="geometry" />
        </mxCell>
        <mxCell id="Y50h0ioskMYezZolgOeM-47" value="Секция" style="shape=ext;margin=3;double=1;whiteSpace=wrap;html=1;align=center;" vertex="1" parent="1">
          <mxGeometry x="40" y="540" width="100" height="40" as="geometry" />
        </mxCell>
        <mxCell id="Y50h0ioskMYezZolgOeM-58" style="edgeStyle=orthogonalEdgeStyle;rounded=0;orthogonalLoop=1;jettySize=auto;html=1;exitX=0.5;exitY=1;exitDx=0;exitDy=0;" edge="1" parent="1" source="Y50h0ioskMYezZolgOeM-27" target="Y50h0ioskMYezZolgOeM-41">
          <mxGeometry relative="1" as="geometry">
            <mxPoint x="370" y="490" as="sourcePoint" />
          </mxGeometry>
        </mxCell>
        <mxCell id="Y50h0ioskMYezZolgOeM-89" value="ID" style="edgeLabel;html=1;align=center;verticalAlign=middle;resizable=0;points=[];" vertex="1" connectable="0" parent="Y50h0ioskMYezZolgOeM-58">
          <mxGeometry x="-0.1967" y="-2" relative="1" as="geometry">
            <mxPoint as="offset" />
          </mxGeometry>
        </mxCell>
        <mxCell id="Y50h0ioskMYezZolgOeM-61" style="edgeStyle=orthogonalEdgeStyle;rounded=0;orthogonalLoop=1;jettySize=auto;html=1;exitX=0.5;exitY=1;exitDx=0;exitDy=0;entryX=0.5;entryY=0;entryDx=0;entryDy=0;" edge="1" parent="1" source="Y50h0ioskMYezZolgOeM-26" target="Y50h0ioskMYezZolgOeM-46">
          <mxGeometry relative="1" as="geometry">
            <mxPoint x="350" y="490" as="sourcePoint" />
            <mxPoint x="350" y="550" as="targetPoint" />
            <Array as="points">
              <mxPoint x="220" y="510" />
              <mxPoint x="220" y="510" />
            </Array>
          </mxGeometry>
        </mxCell>
        <mxCell id="Y50h0ioskMYezZolgOeM-88" value="ID" style="edgeLabel;html=1;align=center;verticalAlign=middle;resizable=0;points=[];" vertex="1" connectable="0" parent="Y50h0ioskMYezZolgOeM-61">
          <mxGeometry x="-0.1967" y="-2" relative="1" as="geometry">
            <mxPoint as="offset" />
          </mxGeometry>
        </mxCell>
        <mxCell id="Y50h0ioskMYezZolgOeM-62" style="edgeStyle=orthogonalEdgeStyle;rounded=0;orthogonalLoop=1;jettySize=auto;html=1;exitX=0.5;exitY=1;exitDx=0;exitDy=0;entryX=0.5;entryY=0;entryDx=0;entryDy=0;" edge="1" parent="1" source="Y50h0ioskMYezZolgOeM-40" target="Y50h0ioskMYezZolgOeM-47">
          <mxGeometry relative="1" as="geometry">
            <mxPoint x="230" y="490" as="sourcePoint" />
            <mxPoint x="230" y="550" as="targetPoint" />
            <Array as="points">
              <mxPoint x="90" y="520" />
              <mxPoint x="90" y="520" />
            </Array>
          </mxGeometry>
        </mxCell>
        <mxCell id="Y50h0ioskMYezZolgOeM-87" value="ID" style="edgeLabel;html=1;align=center;verticalAlign=middle;resizable=0;points=[];" vertex="1" connectable="0" parent="Y50h0ioskMYezZolgOeM-62">
          <mxGeometry x="0.2748" y="1" relative="1" as="geometry">
            <mxPoint as="offset" />
          </mxGeometry>
        </mxCell>
        <mxCell id="Y50h0ioskMYezZolgOeM-63" style="edgeStyle=orthogonalEdgeStyle;rounded=0;orthogonalLoop=1;jettySize=auto;html=1;exitX=0.428;exitY=1.008;exitDx=0;exitDy=0;entryX=0.5;entryY=0;entryDx=0;entryDy=0;exitPerimeter=0;" edge="1" parent="1" source="Y50h0ioskMYezZolgOeM-24" target="Y50h0ioskMYezZolgOeM-40">
          <mxGeometry relative="1" as="geometry">
            <mxPoint x="100" y="490" as="sourcePoint" />
            <mxPoint x="100" y="550" as="targetPoint" />
            <Array as="points">
              <mxPoint x="220" y="390" />
              <mxPoint x="220" y="410" />
              <mxPoint x="90" y="410" />
            </Array>
          </mxGeometry>
        </mxCell>
        <mxCell id="Y50h0ioskMYezZolgOeM-84" value="ID" style="edgeLabel;html=1;align=center;verticalAlign=middle;resizable=0;points=[];" vertex="1" connectable="0" parent="Y50h0ioskMYezZolgOeM-63">
          <mxGeometry x="0.3311" y="1" relative="1" as="geometry">
            <mxPoint as="offset" />
          </mxGeometry>
        </mxCell>
        <mxCell id="Y50h0ioskMYezZolgOeM-65" style="edgeStyle=orthogonalEdgeStyle;rounded=0;orthogonalLoop=1;jettySize=auto;html=1;exitX=0.5;exitY=1;exitDx=0;exitDy=0;" edge="1" parent="1" source="Y50h0ioskMYezZolgOeM-24">
          <mxGeometry relative="1" as="geometry">
            <mxPoint x="463" y="380" as="sourcePoint" />
            <mxPoint x="340" y="440" as="targetPoint" />
            <Array as="points">
              <mxPoint x="220" y="410" />
              <mxPoint x="340" y="410" />
            </Array>
          </mxGeometry>
        </mxCell>
        <mxCell id="Y50h0ioskMYezZolgOeM-85" value="ID" style="edgeLabel;html=1;align=center;verticalAlign=middle;resizable=0;points=[];" vertex="1" connectable="0" parent="Y50h0ioskMYezZolgOeM-65">
          <mxGeometry x="0.2745" y="2" relative="1" as="geometry">
            <mxPoint as="offset" />
          </mxGeometry>
        </mxCell>
        <mxCell id="Y50h0ioskMYezZolgOeM-68" style="edgeStyle=orthogonalEdgeStyle;rounded=0;orthogonalLoop=1;jettySize=auto;html=1;" edge="1" parent="1">
          <mxGeometry relative="1" as="geometry">
            <mxPoint x="220" y="390" as="sourcePoint" />
            <mxPoint x="220" y="440" as="targetPoint" />
            <Array as="points">
              <mxPoint x="220" y="420" />
              <mxPoint x="220" y="420" />
            </Array>
          </mxGeometry>
        </mxCell>
        <mxCell id="Y50h0ioskMYezZolgOeM-86" value="ID" style="edgeLabel;html=1;align=center;verticalAlign=middle;resizable=0;points=[];" vertex="1" connectable="0" parent="Y50h0ioskMYezZolgOeM-68">
          <mxGeometry x="0.1805" y="-1" relative="1" as="geometry">
            <mxPoint as="offset" />
          </mxGeometry>
        </mxCell>
        <mxCell id="Y50h0ioskMYezZolgOeM-70" value="Дом" style="shape=ext;margin=3;double=1;whiteSpace=wrap;html=1;align=center;" vertex="1" parent="1">
          <mxGeometry x="40" y="650" width="100" height="40" as="geometry" />
        </mxCell>
        <mxCell id="Y50h0ioskMYezZolgOeM-72" style="edgeStyle=orthogonalEdgeStyle;rounded=0;orthogonalLoop=1;jettySize=auto;html=1;exitX=0.5;exitY=1;exitDx=0;exitDy=0;entryX=0.5;entryY=0;entryDx=0;entryDy=0;" edge="1" parent="1" source="Y50h0ioskMYezZolgOeM-47" target="Y50h0ioskMYezZolgOeM-70">
          <mxGeometry relative="1" as="geometry">
            <mxPoint x="100" y="490" as="sourcePoint" />
            <mxPoint x="100" y="550" as="targetPoint" />
            <Array as="points">
              <mxPoint x="90" y="600" />
              <mxPoint x="90" y="600" />
            </Array>
          </mxGeometry>
        </mxCell>
        <mxCell id="Y50h0ioskMYezZolgOeM-73" value="Дом" style="shape=ext;margin=3;double=1;whiteSpace=wrap;html=1;align=center;" vertex="1" parent="1">
          <mxGeometry x="170" y="650" width="100" height="40" as="geometry" />
        </mxCell>
        <mxCell id="Y50h0ioskMYezZolgOeM-74" value="Дом" style="shape=ext;margin=3;double=1;whiteSpace=wrap;html=1;align=center;" vertex="1" parent="1">
          <mxGeometry x="300" y="650" width="100" height="40" as="geometry" />
        </mxCell>
        <mxCell id="Y50h0ioskMYezZolgOeM-75" style="edgeStyle=orthogonalEdgeStyle;rounded=0;orthogonalLoop=1;jettySize=auto;html=1;exitX=0.5;exitY=1;exitDx=0;exitDy=0;entryX=0.5;entryY=0;entryDx=0;entryDy=0;" edge="1" parent="1" source="Y50h0ioskMYezZolgOeM-46" target="Y50h0ioskMYezZolgOeM-73">
          <mxGeometry relative="1" as="geometry">
            <mxPoint x="230" y="490" as="sourcePoint" />
            <mxPoint x="230" y="550" as="targetPoint" />
            <Array as="points">
              <mxPoint x="220" y="620" />
              <mxPoint x="220" y="620" />
            </Array>
          </mxGeometry>
        </mxCell>
        <mxCell id="Y50h0ioskMYezZolgOeM-76" style="edgeStyle=orthogonalEdgeStyle;rounded=0;orthogonalLoop=1;jettySize=auto;html=1;exitX=0.5;exitY=1;exitDx=0;exitDy=0;entryX=0.5;entryY=0;entryDx=0;entryDy=0;" edge="1" parent="1" source="Y50h0ioskMYezZolgOeM-41" target="Y50h0ioskMYezZolgOeM-74">
          <mxGeometry relative="1" as="geometry">
            <mxPoint x="230" y="590" as="sourcePoint" />
            <mxPoint x="230" y="660" as="targetPoint" />
            <Array as="points" />
          </mxGeometry>
        </mxCell>
        <mxCell id="Y50h0ioskMYezZolgOeM-77" value="Планировка" style="shape=ext;margin=3;double=1;whiteSpace=wrap;html=1;align=center;" vertex="1" parent="1">
          <mxGeometry x="40" y="740" width="100" height="40" as="geometry" />
        </mxCell>
        <mxCell id="Y50h0ioskMYezZolgOeM-78" style="edgeStyle=orthogonalEdgeStyle;rounded=0;orthogonalLoop=1;jettySize=auto;html=1;exitX=0.5;exitY=1;exitDx=0;exitDy=0;entryX=0.5;entryY=0;entryDx=0;entryDy=0;" edge="1" parent="1" source="Y50h0ioskMYezZolgOeM-70" target="Y50h0ioskMYezZolgOeM-77">
          <mxGeometry relative="1" as="geometry">
            <mxPoint x="100" y="590" as="sourcePoint" />
            <mxPoint x="100" y="660" as="targetPoint" />
            <Array as="points">
              <mxPoint x="90" y="710" />
              <mxPoint x="90" y="710" />
            </Array>
          </mxGeometry>
        </mxCell>
        <mxCell id="Y50h0ioskMYezZolgOeM-79" value="Планировка" style="shape=ext;margin=3;double=1;whiteSpace=wrap;html=1;align=center;" vertex="1" parent="1">
          <mxGeometry x="170" y="740" width="100" height="40" as="geometry" />
        </mxCell>
        <mxCell id="Y50h0ioskMYezZolgOeM-80" style="edgeStyle=orthogonalEdgeStyle;rounded=0;orthogonalLoop=1;jettySize=auto;html=1;exitX=0.5;exitY=1;exitDx=0;exitDy=0;" edge="1" parent="1" source="Y50h0ioskMYezZolgOeM-73">
          <mxGeometry relative="1" as="geometry">
            <mxPoint x="100" y="700" as="sourcePoint" />
            <mxPoint x="220" y="740" as="targetPoint" />
            <Array as="points">
              <mxPoint x="220" y="740" />
            </Array>
          </mxGeometry>
        </mxCell>
        <mxCell id="Y50h0ioskMYezZolgOeM-81" value="Планировка" style="shape=ext;margin=3;double=1;whiteSpace=wrap;html=1;align=center;" vertex="1" parent="1">
          <mxGeometry x="300" y="740" width="100" height="40" as="geometry" />
        </mxCell>
        <mxCell id="Y50h0ioskMYezZolgOeM-83" style="edgeStyle=orthogonalEdgeStyle;rounded=0;orthogonalLoop=1;jettySize=auto;html=1;exitX=0.5;exitY=1;exitDx=0;exitDy=0;" edge="1" parent="1" source="Y50h0ioskMYezZolgOeM-74" target="Y50h0ioskMYezZolgOeM-81">
          <mxGeometry relative="1" as="geometry">
            <mxPoint x="230" y="700" as="sourcePoint" />
            <mxPoint x="230" y="750" as="targetPoint" />
            <Array as="points">
              <mxPoint x="350" y="690" />
            </Array>
          </mxGeometry>
        </mxCell>
        <mxCell id="Y50h0ioskMYezZolgOeM-90" value="XML" style="shape=ext;margin=3;double=1;whiteSpace=wrap;html=1;align=center;" vertex="1" parent="1">
          <mxGeometry x="570" y="380" width="100" height="40" as="geometry" />
        </mxCell>
        <mxCell id="Y50h0ioskMYezZolgOeM-91" value="&amp;lt;offer&amp;gt;" style="shape=ext;margin=3;double=1;whiteSpace=wrap;html=1;align=center;" vertex="1" parent="1">
          <mxGeometry x="580" y="450" width="100" height="40" as="geometry" />
        </mxCell>
      </root>
    </mxGraphModel>
  </diagram>
</mxfile>
